<?xml version="1.0" encoding="utf-8"?>
<!-- Generator: Adobe Illustrator 27.5.0, SVG Export Plug-In . SVG Version: 6.00 Build 0)  -->
<svg version="1.1" id="Layer_1" xmlns="http://www.w3.org/2000/svg" xmlns:xlink="http://www.w3.org/1999/xlink" x="0px" y="0px"
	 viewBox="0 0 200 200" style="enable-background:new 0 0 200 200;" xml:space="preserve">
<style type="text/css">
	.st0{display:none;opacity:0.3;fill:none;stroke:#7C3AED;stroke-width:2;enable-background:new    ;}
	.st1{display:none;fill:none;stroke:url(#SVGID_1_);}
	.st2{display:none;}
	.st3{display:inline;fill:#A855F7;fill-opacity:4.000000e-02;stroke:#A855F7;stroke-width:2;}
	.st4{display:inline;fill:#7C3AED;fill-opacity:8.000000e-02;stroke:#7C3AED;stroke-width:2;}
	.st5{display:inline;fill:none;stroke:#000000;stroke-width:2;stroke-miterlimit:10;}
	.st6{fill:none;stroke:#A855F7;stroke-width:2;stroke-miterlimit:10;}
	.st7{fill:none;stroke:#7C3AED;stroke-width:2;stroke-miterlimit:10;}
	.st8{fill:none;stroke:#D8C4FA;stroke-width:1.5;stroke-miterlimit:10;}
	.st9{fill:none;stroke:#D794C5;stroke-width:0.75;stroke-miterlimit:10;}
	.st10{fill:none;stroke:#7C3AED;stroke-width:2;}
	.st11{fill:#7C3AED;}
	.st12{fill:none;stroke:#7C3AED;stroke-width:2.5;}
	.st13{opacity:0.6;fill:none;stroke:#722F37;enable-background:new    ;}
	.st14{opacity:0.5;fill:none;stroke:#722F37;enable-background:new    ;}
	.st15{opacity:0.4;fill:none;stroke:#722F37;enable-background:new    ;}
	.st16{fill:none;stroke:#A855F7;}
	.st17{fill:none;stroke:#A855F7;stroke-width:1.5;}
	.st18{fill:#A855F7;}
</style>
<circle class="st0" cx="100" cy="100" r="90"/>
<linearGradient id="SVGID_1_" gradientUnits="userSpaceOnUse" x1="-148.1722" y1="350.1722" x2="-147.1722" y2="349.1722" gradientTransform="matrix(180 0 0 -180 26681 63041)">
	<stop  offset="0" style="stop-color:#7C3AED;stop-opacity:0.6"/>
	<stop  offset="0.5" style="stop-color:#EF4444;stop-opacity:0.3"/>
	<stop  offset="1" style="stop-color:#A855F7;stop-opacity:0.6"/>
</linearGradient>
<circle class="st1" cx="100" cy="100" r="90"/>
<g class="st2">
	<path class="st3" d="M100,10c-24.9,0-45,20.1-45,45s20.1,45,45,45s45,20.1,45,45s-20.1,45-45,45"/>
	<path class="st4" d="M100,10c24.9,0,45,20.1,45,45s-20.1,45-45,45s-45,20.1-45,45s20.1,45,45,45"/>
</g>
<g class="st2">
	<path class="st5" d="M110.1,14.8L110.1,14.8c2.7,3.5,7.1,5.3,11.5,4.8l0,0c8.1-1,15.1,5.9,14.1,14.1v0c-0.5,4.4,1.3,8.7,4.8,11.5
		l0,0c6.5,5.1,6.5,14.8,0,19.9l0,0c-3.5,2.7-5.3,7.1-4.8,11.5v0c1,8.1-5.9,15.1-14.1,14.1l0,0c-4.4-0.5-8.7,1.3-11.5,4.8l0,0
		c-5.1,6.5-14.8,6.5-19.9,0l0,0c-2.7-3.5-7.1-5.3-11.5-4.8l0,0c-8.1,1-15.1-5.9-14.1-14.1v0c0.5-4.4-1.3-8.7-4.8-11.5l0,0
		c-6.5-5.1-6.5-14.8,0-19.9l0,0c3.5-2.7,5.3-7.1,4.8-11.5v0c-1-8.1,5.9-15.1,14.1-14.1l0,0c4.4,0.5,8.7-1.3,11.5-4.8l0,0
		C95.3,8.3,105.1,8.3,110.1,14.8z"/>
	<path class="st5" d="M92.9,98.2L92.9,98.2c4.4,2.5,9.8,2.5,14.2,0l0,0c8.2-4.6,18.5-0.3,21,8.7l0,0c1.4,4.9,5.2,8.7,10,10l0,0
		c9,2.5,13.3,12.8,8.7,21l0,0c-2.5,4.4-2.5,9.8,0,14.2l0,0c4.6,8.2,0.3,18.5-8.7,21l0,0c-4.9,1.4-8.7,5.2-10,10l0,0
		c-2.5,9-12.8,13.3-21,8.7l0,0c-4.4-2.5-9.8-2.5-14.2,0l0,0c-8.2,4.6-18.5,0.3-21-8.7l0,0c-1.4-4.9-5.2-8.7-10-10l0,0
		c-9-2.5-13.3-12.8-8.7-21l0,0c2.5-4.4,2.5-9.8,0-14.2l0,0c-4.6-8.2-0.3-18.5,8.7-21l0,0c4.9-1.4,8.7-5.2,10-10l0,0
		C74.4,97.9,84.8,93.6,92.9,98.2z"/>
</g>
<g>
	<path class="st6" d="M100,9.9c-3.7,0-7.3,1.7-9.8,4.8c-2.7,3.5-7.1,5.3-11.5,4.8h0c-8.1-1-15.1,5.9-14.1,14.1
		c0.5,4.4-1.3,8.7-4.8,11.5c-6.5,5.1-6.5,14.8,0,19.9c3.5,2.7,5.3,7.1,4.8,11.5c-1,8.1,5.9,15.1,14.1,14.1h0
		c4.4-0.5,8.7,1.3,11.5,4.8c2.5,3.2,6.1,4.8,9.8,4.8"/>
	<path class="st6" d="M100,189.9c2.4,0,4.9,0.6,7.1,1.9c8.2,4.6,18.5,0.3,21-8.7c1.4-4.9,5.2-8.7,10-10c9-2.5,13.3-12.8,8.7-21
		c-2.5-4.4-2.5-9.8,0-14.2c4.6-8.2,0.3-18.5-8.7-21c-4.9-1.4-8.7-5.2-10-10c-2.5-9-12.8-13.3-21-8.7c-2.2,1.2-4.6,1.9-7.1,1.9"/>
	<path class="st7" d="M100,100.1c-2.4,0-4.9-0.6-7.1-1.9c-8.2-4.6-18.5-0.3-21,8.7c-1.4,4.9-5.2,8.7-10,10c-9,2.5-13.3,12.8-8.7,21
		c2.5,4.4,2.5,9.8,0,14.2c-4.6,8.2-0.3,18.5,8.7,21c4.9,1.4,8.7,5.2,10,10c2.5,9,12.8,13.3,21,8.7c2.2-1.2,4.6-1.9,7.1-1.9"/>
	<path class="st7" d="M100,100.1c3.8,0.1,7.6-1.6,10.1-4.8c2.7-3.5,7.1-5.3,11.5-4.8c8.1,1,15.1-5.9,14.1-14.1
		c-0.5-4.4,1.3-8.7,4.8-11.5c6.5-5.1,6.5-14.8,0-19.9c-3.5-2.7-5.3-7.1-4.8-11.5c1-8.1-5.9-15.1-14.1-14.1
		c-4.4,0.5-8.7-1.3-11.5-4.8c-2.6-3.3-6.4-4.9-10.1-4.8"/>
</g>
<g>
	<g>
		<g>
			<g>
				<g>
					<g>
						<g>
							<path class="st8" d="M90.1,6.2c-2,0-3.6,1.6-3.6,3.6c0,2,1.6,3.6,3.6,3.6s3.6-1.6,3.6-3.6C93.7,7.8,92.1,6.2,90.1,6.2z"/>
							<path class="st8" d="M110.2,2.4c-1.9-0.1-3.6,0.6-4.9,1.6c-1,0.8-2.3,1.2-3.7,1.2H100h-1.6c-1.3,0-2.6-0.4-3.7-1.2
								c-1.3-1.1-3-1.7-4.9-1.6c-3.8,0.1-7,3.3-7.1,7.2c-0.1,4.2,3.2,7.6,7.4,7.6c1.8,0,3.4-0.6,4.7-1.7c1-0.8,2.2-1.2,3.5-1.2h1.7
								h1.7c1.3,0,2.5,0.4,3.5,1.2c1.3,1.1,2.9,1.7,4.7,1.7c4.2,0,7.5-3.4,7.4-7.6C117.2,5.7,114,2.5,110.2,2.4z M90.1,15
								c-2.9,0-5.2-2.3-5.2-5.2c0-2.9,2.3-5.2,5.2-5.2s5.2,2.3,5.2,5.2C95.3,12.7,93,15,90.1,15z M109.9,15c-2.9,0-5.2-2.3-5.2-5.2
								c0-2.9,2.3-5.2,5.2-5.2s5.2,2.3,5.2,5.2C115.2,12.7,112.8,15,109.9,15z"/>
							<path class="st8" d="M109.9,6.2c-2,0-3.6,1.6-3.6,3.6c0,2,1.6,3.6,3.6,3.6s3.6-1.6,3.6-3.6C113.5,7.8,111.9,6.2,109.9,6.2z"
								/>
						</g>
						<g>
							<path class="st8" d="M109.9,193.8c2,0,3.6-1.6,3.6-3.6c0-2-1.6-3.6-3.6-3.6s-3.6,1.6-3.6,3.6
								C106.3,192.2,107.9,193.8,109.9,193.8z"/>
							<path class="st8" d="M89.8,197.6c1.9,0.1,3.6-0.6,4.9-1.6c1-0.8,2.3-1.2,3.7-1.2h1.6h1.6c1.3,0,2.6,0.4,3.7,1.2
								c1.3,1.1,3,1.7,4.9,1.6c3.8-0.1,7-3.3,7.1-7.2c0.1-4.2-3.2-7.6-7.4-7.6c-1.8,0-3.4,0.6-4.7,1.7c-1,0.8-2.2,1.2-3.5,1.2H100
								h-1.7c-1.3,0-2.5-0.4-3.5-1.2c-1.3-1.1-2.9-1.7-4.7-1.7c-4.2,0-7.5,3.4-7.4,7.6C82.8,194.3,86,197.5,89.8,197.6z M109.9,185
								c2.9,0,5.2,2.3,5.2,5.2c0,2.9-2.3,5.2-5.2,5.2s-5.2-2.3-5.2-5.2C104.7,187.3,107,185,109.9,185z M90.1,185
								c2.9,0,5.2,2.3,5.2,5.2c0,2.9-2.3,5.2-5.2,5.2s-5.2-2.3-5.2-5.2C84.8,187.3,87.2,185,90.1,185z"/>
							<path class="st8" d="M90.1,193.8c2,0,3.6-1.6,3.6-3.6c0-2-1.6-3.6-3.6-3.6s-3.6,1.6-3.6,3.6
								C86.5,192.2,88.1,193.8,90.1,193.8z"/>
						</g>
					</g>
					<g>
						<g>
							<path class="st8" d="M193.8,90.1c0-2-1.6-3.6-3.6-3.6c-2,0-3.6,1.6-3.6,3.6s1.6,3.6,3.6,3.6
								C192.2,93.7,193.8,92.1,193.8,90.1z"/>
							<path class="st8" d="M197.6,110.2c0.1-1.9-0.6-3.6-1.6-4.9c-0.8-1-1.2-2.3-1.2-3.7V100v-1.6c0-1.3,0.4-2.6,1.2-3.7
								c1.1-1.3,1.7-3,1.6-4.9c-0.1-3.8-3.3-7-7.2-7.1c-4.2-0.1-7.6,3.2-7.6,7.4c0,1.8,0.6,3.4,1.7,4.7c0.8,1,1.2,2.2,1.2,3.5v1.7
								v1.7c0,1.3-0.4,2.5-1.2,3.5c-1.1,1.3-1.7,2.9-1.7,4.7c0,4.2,3.4,7.5,7.6,7.4C194.3,117.2,197.5,114,197.6,110.2z M185,90.1
								c0-2.9,2.3-5.2,5.2-5.2c2.9,0,5.2,2.3,5.2,5.2s-2.3,5.2-5.2,5.2C187.3,95.3,185,93,185,90.1z M185,109.9
								c0-2.9,2.3-5.2,5.2-5.2c2.9,0,5.2,2.3,5.2,5.2s-2.3,5.2-5.2,5.2C187.3,115.2,185,112.8,185,109.9z"/>
							<path class="st8" d="M193.8,109.9c0-2-1.6-3.6-3.6-3.6c-2,0-3.6,1.6-3.6,3.6s1.6,3.6,3.6,3.6
								C192.2,113.5,193.8,111.9,193.8,109.9z"/>
						</g>
						<g>
							<path class="st8" d="M6.2,109.9c0,2,1.6,3.6,3.6,3.6c2,0,3.6-1.6,3.6-3.6s-1.6-3.6-3.6-3.6C7.8,106.3,6.2,107.9,6.2,109.9z"
								/>
							<path class="st8" d="M2.4,89.8c-0.1,1.9,0.6,3.6,1.6,4.9c0.8,1,1.2,2.3,1.2,3.7v1.6v1.6c0,1.3-0.4,2.6-1.2,3.7
								c-1.1,1.3-1.7,3-1.6,4.9c0.1,3.8,3.3,7,7.2,7.1c4.2,0.1,7.6-3.2,7.6-7.4c0-1.8-0.6-3.4-1.7-4.7c-0.8-1-1.2-2.2-1.2-3.5V100
								v-1.7c0-1.3,0.4-2.5,1.2-3.5c1.1-1.3,1.7-2.9,1.7-4.7c0-4.2-3.4-7.5-7.6-7.4C5.7,82.8,2.5,86,2.4,89.8z M15,109.9
								c0,2.9-2.3,5.2-5.2,5.2c-2.9,0-5.2-2.3-5.2-5.2s2.3-5.2,5.2-5.2C12.7,104.7,15,107,15,109.9z M15,90.1c0,2.9-2.3,5.2-5.2,5.2
								c-2.9,0-5.2-2.3-5.2-5.2s2.3-5.2,5.2-5.2C12.7,84.8,15,87.2,15,90.1z"/>
							<path class="st8" d="M6.2,90.1c0,2,1.6,3.6,3.6,3.6c2,0,3.6-1.6,3.6-3.6s-1.6-3.6-3.6-3.6C7.8,86.5,6.2,88.1,6.2,90.1z"/>
						</g>
					</g>
				</g>
				<g>
					<g>
						<g>
							<path class="st8" d="M159.3,26.6c-1.4-1.4-3.7-1.4-5.1,0c-1.4,1.4-1.4,3.7,0,5.1s3.7,1.4,5.1,0
								C160.7,30.3,160.7,28.1,159.3,26.6z"/>
							<path class="st8" d="M176.2,38.2c-1.3-1.4-2.9-2.1-4.6-2.3c-1.3-0.1-2.5-0.8-3.5-1.7L167,33l-1.1-1.1
								c-0.9-0.9-1.6-2.1-1.7-3.5c-0.2-1.7-0.9-3.4-2.3-4.6c-2.8-2.6-7.3-2.6-10.1,0c-3,2.9-3.1,7.7-0.2,10.6c1.3,1.3,2.9,2,4.5,2.1
								c1.3,0.1,2.4,0.7,3.3,1.6l1.2,1.2l1.2,1.2c0.9,0.9,1.5,2.1,1.6,3.3c0.2,1.6,0.9,3.3,2.1,4.5c2.9,2.9,7.7,2.9,10.6-0.2
								C178.8,45.5,178.9,41,176.2,38.2z M153.1,32.9c-2-2-2-5.4,0-7.4c2-2,5.4-2,7.4,0c2,2,2,5.4,0,7.4
								C158.4,34.9,155.1,34.9,153.1,32.9z M167.1,46.9c-2-2-2-5.4,0-7.4c2-2,5.4-2,7.4,0s2,5.4,0,7.4C172.5,49,169.2,49,167.1,46.9
								z"/>
							<path class="st8" d="M173.4,40.7c-1.4-1.4-3.7-1.4-5.1,0c-1.4,1.4-1.4,3.7,0,5.1c1.4,1.4,3.7,1.4,5.1,0
								C174.8,44.4,174.8,42.1,173.4,40.7z"/>
						</g>
						<g>
							<path class="st8" d="M40.7,173.4c1.4,1.4,3.7,1.4,5.1,0c1.4-1.4,1.4-3.7,0-5.1c-1.4-1.4-3.7-1.4-5.1,0
								C39.3,169.7,39.3,171.9,40.7,173.4z"/>
							<path class="st8" d="M23.8,161.8c1.3,1.4,2.9,2.1,4.6,2.3c1.3,0.1,2.5,0.8,3.5,1.7L33,167l1.1,1.1c0.9,0.9,1.6,2.1,1.7,3.5
								c0.2,1.7,0.9,3.4,2.3,4.6c2.8,2.6,7.3,2.6,10.1,0c3-2.9,3.1-7.7,0.2-10.6c-1.3-1.3-2.9-2-4.5-2.1c-1.3-0.1-2.4-0.7-3.3-1.6
								l-1.2-1.2l-1.2-1.2c-0.9-0.9-1.5-2.1-1.6-3.3c-0.2-1.6-0.9-3.3-2.1-4.5c-2.9-2.9-7.7-2.9-10.6,0.2
								C21.2,154.5,21.1,159,23.8,161.8z M46.9,167.1c2,2,2,5.4,0,7.4c-2,2-5.4,2-7.4,0s-2-5.4,0-7.4S44.9,165.1,46.9,167.1z
								 M32.9,153.1c2,2,2,5.4,0,7.4c-2,2-5.4,2-7.4,0c-2-2-2-5.4,0-7.4C27.5,151,30.8,151,32.9,153.1z"/>
							<path class="st8" d="M26.6,159.3c1.4,1.4,3.7,1.4,5.1,0c1.4-1.4,1.4-3.7,0-5.1s-3.7-1.4-5.1,0
								C25.2,155.6,25.2,157.9,26.6,159.3z"/>
						</g>
					</g>
					<g>
						<g>
							<path class="st8" d="M173.4,159.3c1.4-1.4,1.4-3.7,0-5.1c-1.4-1.4-3.7-1.4-5.1,0c-1.4,1.4-1.4,3.7,0,5.1
								C169.7,160.7,171.9,160.7,173.4,159.3z"/>
							<path class="st8" d="M161.8,176.2c1.4-1.3,2.1-2.9,2.3-4.6c0.1-1.3,0.8-2.5,1.7-3.5l1.1-1.1l1.1-1.1c0.9-0.9,2.1-1.6,3.5-1.7
								c1.7-0.2,3.4-0.9,4.6-2.3c2.6-2.8,2.6-7.3,0-10.1c-2.9-3-7.7-3.1-10.6-0.2c-1.3,1.3-2,2.9-2.1,4.5c-0.1,1.3-0.7,2.4-1.6,3.3
								l-1.2,1.2l-1.2,1.2c-0.9,0.9-2.1,1.5-3.3,1.6c-1.6,0.2-3.3,0.9-4.5,2.1c-2.9,2.9-2.9,7.7,0.2,10.6
								C154.5,178.8,159,178.9,161.8,176.2z M167.1,153.1c2-2,5.4-2,7.4,0c2,2,2,5.4,0,7.4c-2,2-5.4,2-7.4,0
								C165.1,158.4,165.1,155.1,167.1,153.1z M153.1,167.1c2-2,5.4-2,7.4,0c2,2,2,5.4,0,7.4c-2,2-5.4,2-7.4,0
								C151,172.5,151,169.2,153.1,167.1z"/>
							<path class="st8" d="M159.3,173.4c1.4-1.4,1.4-3.7,0-5.1c-1.4-1.4-3.7-1.4-5.1,0c-1.4,1.4-1.4,3.7,0,5.1
								C155.6,174.8,157.9,174.8,159.3,173.4z"/>
						</g>
						<g>
							<path class="st8" d="M26.6,40.7c-1.4,1.4-1.4,3.7,0,5.1c1.4,1.4,3.7,1.4,5.1,0c1.4-1.4,1.4-3.7,0-5.1
								C30.3,39.3,28.1,39.3,26.6,40.7z"/>
							<path class="st8" d="M38.2,23.8c-1.4,1.3-2.1,2.9-2.3,4.6c-0.1,1.3-0.8,2.5-1.7,3.5L33,33l-1.1,1.1c-0.9,0.9-2.1,1.6-3.5,1.7
								c-1.7,0.2-3.4,0.9-4.6,2.3c-2.6,2.8-2.6,7.3,0,10.1c2.9,3,7.7,3.1,10.6,0.2c1.3-1.3,2-2.9,2.1-4.5c0.1-1.3,0.7-2.4,1.6-3.3
								l1.2-1.2l1.2-1.2c0.9-0.9,2.1-1.5,3.3-1.6c1.6-0.2,3.3-0.9,4.5-2.1c2.9-2.9,2.9-7.7-0.2-10.6C45.5,21.2,41,21.1,38.2,23.8z
								 M32.9,46.9c-2,2-5.4,2-7.4,0c-2-2-2-5.4,0-7.4s5.4-2,7.4,0C34.9,41.6,34.9,44.9,32.9,46.9z M46.9,32.9c-2,2-5.4,2-7.4,0
								c-2-2-2-5.4,0-7.4s5.4-2,7.4,0C49,27.5,49,30.8,46.9,32.9z"/>
							<path class="st8" d="M40.7,26.6c-1.4,1.4-1.4,3.7,0,5.1c1.4,1.4,3.7,1.4,5.1,0c1.4-1.4,1.4-3.7,0-5.1
								C44.4,25.2,42.1,25.2,40.7,26.6z"/>
						</g>
					</g>
				</g>
			</g>
		</g>
		<g>
			<g>
				<g>
					<g>
						<path class="st8" d="M126.7,9.5c-1.8-0.8-3.9,0.1-4.7,1.9c-0.8,1.8,0.1,3.9,1.9,4.7c1.8,0.8,3.9-0.1,4.7-1.9
							C129.4,12.4,128.6,10.3,126.7,9.5z"/>
						<path class="st8" d="M146.7,13.7c-1.7-0.8-3.5-0.8-5.2-0.4c-1.3,0.4-2.6,0.2-3.9-0.3l-1.5-0.6l-1.5-0.6
							c-1.2-0.5-2.3-1.4-2.9-2.5c-0.8-1.5-2.2-2.7-3.9-3.4c-3.6-1.3-7.8,0.4-9.4,3.9c-1.7,3.8,0.1,8.3,3.9,9.9
							c1.6,0.7,3.4,0.7,5,0.2c1.2-0.4,2.5-0.2,3.7,0.2l1.6,0.7l1.6,0.7c1.2,0.5,2.2,1.3,2.8,2.4c0.8,1.5,2,2.7,3.7,3.4
							c3.8,1.6,8.3-0.3,9.8-4.2C152,19.5,150.2,15.3,146.7,13.7z M123.3,17.7c-2.7-1.1-3.9-4.2-2.8-6.8c1.1-2.7,4.2-3.9,6.8-2.8
							s3.9,4.2,2.8,6.8C129.1,17.5,126,18.8,123.3,17.7z M141.7,25.3c-2.7-1.1-3.9-4.2-2.8-6.8c1.1-2.7,4.2-3.9,6.8-2.8
							c2.7,1.1,3.9,4.2,2.8,6.8C147.4,25.1,144.3,26.4,141.7,25.3z"/>
						<path class="st8" d="M145,17.1c-1.8-0.8-3.9,0.1-4.7,1.9c-0.8,1.8,0.1,3.9,1.9,4.7c1.8,0.8,3.9-0.1,4.7-1.9
							C147.8,20,146.9,17.9,145,17.1z"/>
					</g>
					<g>
						<path class="st8" d="M73.3,190.5c1.8,0.8,3.9-0.1,4.7-1.9c0.8-1.8-0.1-3.9-1.9-4.7c-1.8-0.8-3.9,0.1-4.7,1.9
							C70.6,187.6,71.4,189.7,73.3,190.5z"/>
						<path class="st8" d="M53.3,186.3c1.7,0.8,3.5,0.8,5.2,0.4c1.3-0.4,2.6-0.2,3.9,0.3l1.5,0.6l1.5,0.6c1.2,0.5,2.3,1.4,2.9,2.5
							c0.8,1.5,2.2,2.7,3.9,3.4c3.6,1.3,7.8-0.4,9.4-3.9c1.7-3.8-0.1-8.3-3.9-9.9c-1.6-0.7-3.4-0.7-5-0.2c-1.2,0.4-2.5,0.2-3.7-0.2
							l-1.6-0.7l-1.6-0.7c-1.2-0.5-2.2-1.3-2.8-2.4c-0.8-1.5-2-2.7-3.7-3.4c-3.8-1.6-8.3,0.3-9.8,4.2
							C48,180.5,49.8,184.7,53.3,186.3z M76.7,182.3c2.7,1.1,3.9,4.2,2.8,6.8c-1.1,2.7-4.2,3.9-6.8,2.8c-2.7-1.1-3.9-4.2-2.8-6.8
							C70.9,182.5,74,181.2,76.7,182.3z M58.3,174.7c2.7,1.1,3.9,4.2,2.8,6.8c-1.1,2.7-4.2,3.9-6.8,2.8c-2.7-1.1-3.9-4.2-2.8-6.8
							C52.6,174.9,55.7,173.6,58.3,174.7z"/>
						<path class="st8" d="M55,182.9c1.8,0.8,3.9-0.1,4.7-1.9c0.8-1.8-0.1-3.9-1.9-4.7c-1.8-0.8-3.9,0.1-4.7,1.9
							C52.2,180,53.1,182.1,55,182.9z"/>
					</g>
				</g>
				<g>
					<g>
						<path class="st8" d="M190.5,126.7c0.8-1.8-0.1-3.9-1.9-4.7c-1.8-0.8-3.9,0.1-4.7,1.9s0.1,3.9,1.9,4.7
							C187.6,129.4,189.7,128.6,190.5,126.7z"/>
						<path class="st8" d="M186.3,146.7c0.8-1.7,0.8-3.5,0.4-5.2c-0.4-1.3-0.2-2.6,0.3-3.9l0.6-1.5l0.6-1.5c0.5-1.2,1.4-2.3,2.5-2.9
							c1.5-0.8,2.7-2.2,3.4-3.9c1.3-3.6-0.4-7.8-3.9-9.4c-3.8-1.7-8.3,0.1-9.9,3.9c-0.7,1.6-0.7,3.4-0.2,5c0.4,1.2,0.2,2.5-0.2,3.7
							l-0.7,1.6l-0.7,1.6c-0.5,1.2-1.3,2.2-2.4,2.8c-1.5,0.8-2.7,2-3.4,3.7c-1.6,3.8,0.3,8.3,4.2,9.8
							C180.5,152,184.7,150.2,186.3,146.7z M182.3,123.3c1.1-2.7,4.2-3.9,6.8-2.8c2.7,1.1,3.9,4.2,2.8,6.8c-1.1,2.7-4.2,3.9-6.8,2.8
							C182.5,129.1,181.2,126,182.3,123.3z M174.7,141.7c1.1-2.7,4.2-3.9,6.8-2.8c2.7,1.1,3.9,4.2,2.8,6.8c-1.1,2.7-4.2,3.9-6.8,2.8
							C174.9,147.4,173.6,144.3,174.7,141.7z"/>
						<path class="st8" d="M182.9,145c0.8-1.8-0.1-3.9-1.9-4.7c-1.8-0.8-3.9,0.1-4.7,1.9c-0.8,1.8,0.1,3.9,1.9,4.7
							C180,147.8,182.1,146.9,182.9,145z"/>
					</g>
					<g>
						<path class="st8" d="M9.5,73.3c-0.8,1.8,0.1,3.9,1.9,4.7c1.8,0.8,3.9-0.1,4.7-1.9c0.8-1.8-0.1-3.9-1.9-4.7
							C12.4,70.6,10.3,71.4,9.5,73.3z"/>
						<path class="st8" d="M13.7,53.3c-0.8,1.7-0.8,3.5-0.4,5.2c0.4,1.3,0.2,2.6-0.3,3.9l-0.6,1.5l-0.6,1.5
							c-0.5,1.2-1.4,2.3-2.5,2.9c-1.5,0.8-2.7,2.2-3.4,3.9c-1.3,3.6,0.4,7.8,3.9,9.4c3.8,1.7,8.3-0.1,9.9-3.9c0.7-1.6,0.7-3.4,0.2-5
							c-0.4-1.2-0.2-2.5,0.2-3.7l0.7-1.6l0.7-1.6c0.5-1.2,1.3-2.2,2.4-2.8c1.5-0.8,2.7-2,3.4-3.7c1.6-3.8-0.3-8.3-4.2-9.8
							C19.5,48,15.3,49.8,13.7,53.3z M17.7,76.7c-1.1,2.7-4.2,3.9-6.8,2.8c-2.7-1.1-3.9-4.2-2.8-6.8c1.1-2.7,4.2-3.9,6.8-2.8
							C17.5,70.9,18.8,74,17.7,76.7z M25.3,58.3c-1.1,2.7-4.2,3.9-6.8,2.8c-2.7-1.1-3.9-4.2-2.8-6.8c1.1-2.7,4.2-3.9,6.8-2.8
							C25.1,52.6,26.4,55.7,25.3,58.3z"/>
						<path class="st8" d="M17.1,55c-0.8,1.8,0.1,3.9,1.9,4.7c1.8,0.8,3.9-0.1,4.7-1.9c0.8-1.8-0.1-3.9-1.9-4.7
							C20,52.2,17.9,53.1,17.1,55z"/>
					</g>
				</g>
			</g>
			<g>
				<g>
					<g>
						<path class="st8" d="M182.9,54.9c-0.8-1.8-2.9-2.7-4.7-1.9c-1.8,0.8-2.7,2.9-1.9,4.7c0.8,1.8,2.9,2.7,4.7,1.9
							C182.8,58.9,183.6,56.8,182.9,54.9z"/>
						<path class="st8" d="M194.1,72c-0.7-1.7-1.9-3.1-3.4-3.9c-1.2-0.6-2-1.7-2.5-2.9l-0.6-1.5l-0.6-1.5c-0.5-1.2-0.7-2.6-0.3-3.9
							c0.5-1.6,0.4-3.5-0.4-5.2c-1.6-3.5-5.8-5.2-9.4-3.8c-3.9,1.5-5.8,5.9-4.2,9.8c0.7,1.6,1.9,2.9,3.4,3.7c1.1,0.6,2,1.6,2.4,2.8
							l0.7,1.6l0.7,1.6c0.5,1.2,0.6,2.5,0.2,3.7c-0.5,1.6-0.4,3.3,0.2,5c1.6,3.8,6,5.6,9.9,3.9C193.7,79.8,195.4,75.6,194.1,72z
							 M174.7,58.3c-1.1-2.7,0.2-5.7,2.8-6.8c2.7-1.1,5.7,0.2,6.8,2.8c1.1,2.7-0.2,5.7-2.8,6.8C178.9,62.2,175.8,61,174.7,58.3z
							 M182.3,76.6c-1.1-2.7,0.2-5.7,2.8-6.8c2.7-1.1,5.7,0.2,6.8,2.8c1.1,2.7-0.2,5.7-2.8,6.8C186.5,80.6,183.4,79.3,182.3,76.6z"
							/>
						<path class="st8" d="M190.5,73.2c-0.8-1.8-2.9-2.7-4.7-1.9c-1.8,0.8-2.7,2.9-1.9,4.7c0.8,1.8,2.9,2.7,4.7,1.9
							C190.4,77.2,191.2,75.1,190.5,73.2z"/>
					</g>
					<g>
						<path class="st8" d="M17.1,145.1c0.8,1.8,2.9,2.7,4.7,1.9c1.8-0.8,2.7-2.9,1.9-4.7c-0.8-1.8-2.9-2.7-4.7-1.9
							C17.2,141.1,16.4,143.2,17.1,145.1z"/>
						<path class="st8" d="M5.9,128c0.7,1.7,1.9,3.1,3.4,3.9c1.2,0.6,2,1.7,2.5,2.9l0.6,1.5l0.6,1.5c0.5,1.2,0.7,2.6,0.3,3.9
							c-0.5,1.6-0.4,3.5,0.4,5.2c1.6,3.5,5.8,5.2,9.4,3.8c3.9-1.5,5.8-5.9,4.2-9.8c-0.7-1.6-1.9-2.9-3.4-3.7c-1.1-0.6-2-1.6-2.4-2.8
							l-0.7-1.6l-0.7-1.6c-0.5-1.2-0.6-2.5-0.2-3.7c0.5-1.6,0.4-3.3-0.2-5c-1.6-3.8-6-5.6-9.9-3.9C6.3,120.2,4.6,124.4,5.9,128z
							 M25.3,141.7c1.1,2.7-0.2,5.7-2.8,6.8c-2.7,1.1-5.7-0.2-6.8-2.8c-1.1-2.7,0.2-5.7,2.8-6.8C21.1,137.8,24.2,139,25.3,141.7z
							 M17.7,123.4c1.1,2.7-0.2,5.7-2.8,6.8c-2.7,1.1-5.7-0.2-6.8-2.8c-1.1-2.7,0.2-5.7,2.8-6.8C13.5,119.4,16.6,120.7,17.7,123.4z"
							/>
						<path class="st8" d="M9.5,126.8c0.8,1.8,2.9,2.7,4.7,1.9c1.8-0.8,2.7-2.9,1.9-4.7c-0.8-1.8-2.9-2.7-4.7-1.9
							C9.6,122.8,8.8,124.9,9.5,126.8z"/>
					</g>
				</g>
				<g>
					<g>
						<path class="st8" d="M145.1,182.9c1.8-0.8,2.7-2.9,1.9-4.7c-0.8-1.8-2.9-2.7-4.7-1.9c-1.8,0.8-2.7,2.9-1.9,4.7
							C141.1,182.8,143.2,183.6,145.1,182.9z"/>
						<path class="st8" d="M128,194.1c1.7-0.7,3.1-1.9,3.9-3.4c0.6-1.2,1.7-2,2.9-2.5l1.5-0.6l1.5-0.6c1.2-0.5,2.6-0.7,3.9-0.3
							c1.6,0.5,3.5,0.4,5.2-0.4c3.5-1.6,5.2-5.8,3.8-9.4c-1.5-3.9-5.9-5.8-9.8-4.2c-1.6,0.7-2.9,1.9-3.7,3.4c-0.6,1.1-1.6,2-2.8,2.4
							l-1.6,0.7l-1.6,0.7c-1.2,0.5-2.5,0.6-3.7,0.2c-1.6-0.5-3.3-0.4-5,0.2c-3.8,1.6-5.6,6-3.9,9.9
							C120.2,193.7,124.4,195.4,128,194.1z M141.7,174.7c2.7-1.1,5.7,0.2,6.8,2.8c1.1,2.7-0.2,5.7-2.8,6.8c-2.7,1.1-5.7-0.2-6.8-2.8
							C137.8,178.9,139,175.8,141.7,174.7z M123.4,182.3c2.7-1.1,5.7,0.2,6.8,2.8c1.1,2.7-0.2,5.7-2.8,6.8c-2.7,1.1-5.7-0.2-6.8-2.8
							C119.4,186.5,120.7,183.4,123.4,182.3z"/>
						<path class="st8" d="M126.8,190.5c1.8-0.8,2.7-2.9,1.9-4.7c-0.8-1.8-2.9-2.7-4.7-1.9c-1.8,0.8-2.7,2.9-1.9,4.7
							C122.8,190.4,124.9,191.2,126.8,190.5z"/>
					</g>
					<g>
						<path class="st8" d="M54.9,17.1c-1.8,0.8-2.7,2.9-1.9,4.7c0.8,1.8,2.9,2.7,4.7,1.9c1.8-0.8,2.7-2.9,1.9-4.7
							C58.9,17.2,56.8,16.4,54.9,17.1z"/>
						<path class="st8" d="M72,5.9c-1.7,0.7-3.1,1.9-3.9,3.4c-0.6,1.2-1.7,2-2.9,2.5l-1.5,0.6l-1.5,0.6c-1.2,0.5-2.6,0.7-3.9,0.3
							c-1.6-0.5-3.5-0.4-5.2,0.4c-3.5,1.6-5.2,5.8-3.8,9.4c1.5,3.9,5.9,5.8,9.8,4.2c1.6-0.7,2.9-1.9,3.7-3.4c0.6-1.1,1.6-2,2.8-2.4
							l1.6-0.7l1.6-0.7c1.2-0.5,2.5-0.6,3.7-0.2c1.6,0.5,3.3,0.4,5-0.2c3.8-1.6,5.6-6,3.9-9.9C79.8,6.3,75.6,4.6,72,5.9z M58.3,25.3
							c-2.7,1.1-5.7-0.2-6.8-2.8c-1.1-2.7,0.2-5.7,2.8-6.8c2.7-1.1,5.7,0.2,6.8,2.8C62.2,21.1,61,24.2,58.3,25.3z M76.6,17.7
							c-2.7,1.1-5.7-0.2-6.8-2.8c-1.1-2.7,0.2-5.7,2.8-6.8c2.7-1.1,5.7,0.2,6.8,2.8C80.6,13.5,79.3,16.6,76.6,17.7z"/>
						<path class="st8" d="M73.2,9.5c-1.8,0.8-2.7,2.9-1.9,4.7c0.8,1.8,2.9,2.7,4.7,1.9c1.8-0.8,2.7-2.9,1.9-4.7
							C77.2,9.6,75.1,8.8,73.2,9.5z"/>
					</g>
				</g>
			</g>
		</g>
	</g>
	<g>
		<g>
			<g>
				<g>
					<g>
						<g>
							<path class="st9" d="M90.1,6.2c-2,0-3.6,1.6-3.6,3.6c0,2,1.6,3.6,3.6,3.6s3.6-1.6,3.6-3.6C93.7,7.8,92.1,6.2,90.1,6.2z"/>
							<path class="st9" d="M110.2,2.4c-1.9-0.1-3.6,0.6-4.9,1.6c-1,0.8-2.3,1.2-3.7,1.2H100h-1.6c-1.3,0-2.6-0.4-3.7-1.2
								c-1.3-1.1-3-1.7-4.9-1.6c-3.8,0.1-7,3.3-7.1,7.2c-0.1,4.2,3.2,7.6,7.4,7.6c1.8,0,3.4-0.6,4.7-1.7c1-0.8,2.2-1.2,3.5-1.2h1.7
								h1.7c1.3,0,2.5,0.4,3.5,1.2c1.3,1.1,2.9,1.7,4.7,1.7c4.2,0,7.5-3.4,7.4-7.6C117.2,5.7,114,2.5,110.2,2.4z M90.1,15
								c-2.9,0-5.2-2.3-5.2-5.2c0-2.9,2.3-5.2,5.2-5.2s5.2,2.3,5.2,5.2C95.3,12.7,93,15,90.1,15z M109.9,15c-2.9,0-5.2-2.3-5.2-5.2
								c0-2.9,2.3-5.2,5.2-5.2s5.2,2.3,5.2,5.2C115.2,12.7,112.8,15,109.9,15z"/>
							<path class="st9" d="M109.9,6.2c-2,0-3.6,1.6-3.6,3.6c0,2,1.6,3.6,3.6,3.6s3.6-1.6,3.6-3.6C113.5,7.8,111.9,6.2,109.9,6.2z"
								/>
						</g>
						<g>
							<path class="st9" d="M109.9,193.8c2,0,3.6-1.6,3.6-3.6c0-2-1.6-3.6-3.6-3.6s-3.6,1.6-3.6,3.6
								C106.3,192.2,107.9,193.8,109.9,193.8z"/>
							<path class="st9" d="M89.8,197.6c1.9,0.1,3.6-0.6,4.9-1.6c1-0.8,2.3-1.2,3.7-1.2h1.6h1.6c1.3,0,2.6,0.4,3.7,1.2
								c1.3,1.1,3,1.7,4.9,1.6c3.8-0.1,7-3.3,7.1-7.2c0.1-4.2-3.2-7.6-7.4-7.6c-1.8,0-3.4,0.6-4.7,1.7c-1,0.8-2.2,1.2-3.5,1.2H100
								h-1.7c-1.3,0-2.5-0.4-3.5-1.2c-1.3-1.1-2.9-1.7-4.7-1.7c-4.2,0-7.5,3.4-7.4,7.6C82.8,194.3,86,197.5,89.8,197.6z M109.9,185
								c2.9,0,5.2,2.3,5.2,5.2c0,2.9-2.3,5.2-5.2,5.2s-5.2-2.3-5.2-5.2C104.7,187.3,107,185,109.9,185z M90.1,185
								c2.9,0,5.2,2.3,5.2,5.2c0,2.9-2.3,5.2-5.2,5.2s-5.2-2.3-5.2-5.2C84.8,187.3,87.2,185,90.1,185z"/>
							<path class="st9" d="M90.1,193.8c2,0,3.6-1.6,3.6-3.6c0-2-1.6-3.6-3.6-3.6s-3.6,1.6-3.6,3.6
								C86.5,192.2,88.1,193.8,90.1,193.8z"/>
						</g>
					</g>
					<g>
						<g>
							<path class="st9" d="M193.8,90.1c0-2-1.6-3.6-3.6-3.6c-2,0-3.6,1.6-3.6,3.6s1.6,3.6,3.6,3.6
								C192.2,93.7,193.8,92.1,193.8,90.1z"/>
							<path class="st9" d="M197.6,110.2c0.1-1.9-0.6-3.6-1.6-4.9c-0.8-1-1.2-2.3-1.2-3.7V100v-1.6c0-1.3,0.4-2.6,1.2-3.7
								c1.1-1.3,1.7-3,1.6-4.9c-0.1-3.8-3.3-7-7.2-7.1c-4.2-0.1-7.6,3.2-7.6,7.4c0,1.8,0.6,3.4,1.7,4.7c0.8,1,1.2,2.2,1.2,3.5v1.7
								v1.7c0,1.3-0.4,2.5-1.2,3.5c-1.1,1.3-1.7,2.9-1.7,4.7c0,4.2,3.4,7.5,7.6,7.4C194.3,117.2,197.5,114,197.6,110.2z M185,90.1
								c0-2.9,2.3-5.2,5.2-5.2c2.9,0,5.2,2.3,5.2,5.2s-2.3,5.2-5.2,5.2C187.3,95.3,185,93,185,90.1z M185,109.9
								c0-2.9,2.3-5.2,5.2-5.2c2.9,0,5.2,2.3,5.2,5.2s-2.3,5.2-5.2,5.2C187.3,115.2,185,112.8,185,109.9z"/>
							<path class="st9" d="M193.8,109.9c0-2-1.6-3.6-3.6-3.6c-2,0-3.6,1.6-3.6,3.6s1.6,3.6,3.6,3.6
								C192.2,113.5,193.8,111.9,193.8,109.9z"/>
						</g>
						<g>
							<path class="st9" d="M6.2,109.9c0,2,1.6,3.6,3.6,3.6c2,0,3.6-1.6,3.6-3.6s-1.6-3.6-3.6-3.6C7.8,106.3,6.2,107.9,6.2,109.9z"
								/>
							<path class="st9" d="M2.4,89.8c-0.1,1.9,0.6,3.6,1.6,4.9c0.8,1,1.2,2.3,1.2,3.7v1.6v1.6c0,1.3-0.4,2.6-1.2,3.7
								c-1.1,1.3-1.7,3-1.6,4.9c0.1,3.8,3.3,7,7.2,7.1c4.2,0.1,7.6-3.2,7.6-7.4c0-1.8-0.6-3.4-1.7-4.7c-0.8-1-1.2-2.2-1.2-3.5V100
								v-1.7c0-1.3,0.4-2.5,1.2-3.5c1.1-1.3,1.7-2.9,1.7-4.7c0-4.2-3.4-7.5-7.6-7.4C5.7,82.8,2.5,86,2.4,89.8z M15,109.9
								c0,2.9-2.3,5.2-5.2,5.2c-2.9,0-5.2-2.3-5.2-5.2s2.3-5.2,5.2-5.2C12.7,104.7,15,107,15,109.9z M15,90.1c0,2.9-2.3,5.2-5.2,5.2
								c-2.9,0-5.2-2.3-5.2-5.2s2.3-5.2,5.2-5.2C12.7,84.8,15,87.2,15,90.1z"/>
							<path class="st9" d="M6.2,90.1c0,2,1.6,3.6,3.6,3.6c2,0,3.6-1.6,3.6-3.6s-1.6-3.6-3.6-3.6C7.8,86.5,6.2,88.1,6.2,90.1z"/>
						</g>
					</g>
				</g>
				<g>
					<g>
						<g>
							<path class="st9" d="M159.3,26.6c-1.4-1.4-3.7-1.4-5.1,0c-1.4,1.4-1.4,3.7,0,5.1s3.7,1.4,5.1,0
								C160.7,30.3,160.7,28.1,159.3,26.6z"/>
							<path class="st9" d="M176.2,38.2c-1.3-1.4-2.9-2.1-4.6-2.3c-1.3-0.1-2.5-0.8-3.5-1.7L167,33l-1.1-1.1
								c-0.9-0.9-1.6-2.1-1.7-3.5c-0.2-1.7-0.9-3.4-2.3-4.6c-2.8-2.6-7.3-2.6-10.1,0c-3,2.9-3.1,7.7-0.2,10.6c1.3,1.3,2.9,2,4.5,2.1
								c1.3,0.1,2.4,0.7,3.3,1.6l1.2,1.2l1.2,1.2c0.9,0.9,1.5,2.1,1.6,3.3c0.2,1.6,0.9,3.3,2.1,4.5c2.9,2.9,7.7,2.9,10.6-0.2
								C178.8,45.5,178.9,41,176.2,38.2z M153.1,32.9c-2-2-2-5.4,0-7.4c2-2,5.4-2,7.4,0c2,2,2,5.4,0,7.4
								C158.4,34.9,155.1,34.9,153.1,32.9z M167.1,46.9c-2-2-2-5.4,0-7.4c2-2,5.4-2,7.4,0s2,5.4,0,7.4C172.5,49,169.2,49,167.1,46.9
								z"/>
							<path class="st9" d="M173.4,40.7c-1.4-1.4-3.7-1.4-5.1,0c-1.4,1.4-1.4,3.7,0,5.1c1.4,1.4,3.7,1.4,5.1,0
								C174.8,44.4,174.8,42.1,173.4,40.7z"/>
						</g>
						<g>
							<path class="st9" d="M40.7,173.4c1.4,1.4,3.7,1.4,5.1,0c1.4-1.4,1.4-3.7,0-5.1c-1.4-1.4-3.7-1.4-5.1,0
								C39.3,169.7,39.3,171.9,40.7,173.4z"/>
							<path class="st9" d="M23.8,161.8c1.3,1.4,2.9,2.1,4.6,2.3c1.3,0.1,2.5,0.8,3.5,1.7L33,167l1.1,1.1c0.9,0.9,1.6,2.1,1.7,3.5
								c0.2,1.7,0.9,3.4,2.3,4.6c2.8,2.6,7.3,2.6,10.1,0c3-2.9,3.1-7.7,0.2-10.6c-1.3-1.3-2.9-2-4.5-2.1c-1.3-0.1-2.4-0.7-3.3-1.6
								l-1.2-1.2l-1.2-1.2c-0.9-0.9-1.5-2.1-1.6-3.3c-0.2-1.6-0.9-3.3-2.1-4.5c-2.9-2.9-7.7-2.9-10.6,0.2
								C21.2,154.5,21.1,159,23.8,161.8z M46.9,167.1c2,2,2,5.4,0,7.4c-2,2-5.4,2-7.4,0s-2-5.4,0-7.4S44.9,165.1,46.9,167.1z
								 M32.9,153.1c2,2,2,5.4,0,7.4c-2,2-5.4,2-7.4,0c-2-2-2-5.4,0-7.4C27.5,151,30.8,151,32.9,153.1z"/>
							<path class="st9" d="M26.6,159.3c1.4,1.4,3.7,1.4,5.1,0c1.4-1.4,1.4-3.7,0-5.1s-3.7-1.4-5.1,0
								C25.2,155.6,25.2,157.9,26.6,159.3z"/>
						</g>
					</g>
					<g>
						<g>
							<path class="st9" d="M173.4,159.3c1.4-1.4,1.4-3.7,0-5.1c-1.4-1.4-3.7-1.4-5.1,0c-1.4,1.4-1.4,3.7,0,5.1
								C169.7,160.7,171.9,160.7,173.4,159.3z"/>
							<path class="st9" d="M161.8,176.2c1.4-1.3,2.1-2.9,2.3-4.6c0.1-1.3,0.8-2.5,1.7-3.5l1.1-1.1l1.1-1.1c0.9-0.9,2.1-1.6,3.5-1.7
								c1.7-0.2,3.4-0.9,4.6-2.3c2.6-2.8,2.6-7.3,0-10.1c-2.9-3-7.7-3.1-10.6-0.2c-1.3,1.3-2,2.9-2.1,4.5c-0.1,1.3-0.7,2.4-1.6,3.3
								l-1.2,1.2l-1.2,1.2c-0.9,0.9-2.1,1.5-3.3,1.6c-1.6,0.2-3.3,0.9-4.5,2.1c-2.9,2.9-2.9,7.7,0.2,10.6
								C154.5,178.8,159,178.9,161.8,176.2z M167.1,153.1c2-2,5.4-2,7.4,0c2,2,2,5.4,0,7.4c-2,2-5.4,2-7.4,0
								C165.1,158.4,165.1,155.1,167.1,153.1z M153.1,167.1c2-2,5.4-2,7.4,0c2,2,2,5.4,0,7.4c-2,2-5.4,2-7.4,0
								C151,172.5,151,169.2,153.1,167.1z"/>
							<path class="st9" d="M159.3,173.4c1.4-1.4,1.4-3.7,0-5.1c-1.4-1.4-3.7-1.4-5.1,0c-1.4,1.4-1.4,3.7,0,5.1
								C155.6,174.8,157.9,174.8,159.3,173.4z"/>
						</g>
						<g>
							<path class="st9" d="M26.6,40.7c-1.4,1.4-1.4,3.7,0,5.1c1.4,1.4,3.7,1.4,5.1,0c1.4-1.4,1.4-3.7,0-5.1
								C30.3,39.3,28.1,39.3,26.6,40.7z"/>
							<path class="st9" d="M38.2,23.8c-1.4,1.3-2.1,2.9-2.3,4.6c-0.1,1.3-0.8,2.5-1.7,3.5L33,33l-1.1,1.1c-0.9,0.9-2.1,1.6-3.5,1.7
								c-1.7,0.2-3.4,0.9-4.6,2.3c-2.6,2.8-2.6,7.3,0,10.1c2.9,3,7.7,3.1,10.6,0.2c1.3-1.3,2-2.9,2.1-4.5c0.1-1.3,0.7-2.4,1.6-3.3
								l1.2-1.2l1.2-1.2c0.9-0.9,2.1-1.5,3.3-1.6c1.6-0.2,3.3-0.9,4.5-2.1c2.9-2.9,2.9-7.7-0.2-10.6C45.5,21.2,41,21.1,38.2,23.8z
								 M32.9,46.9c-2,2-5.4,2-7.4,0c-2-2-2-5.4,0-7.4s5.4-2,7.4,0C34.9,41.6,34.9,44.9,32.9,46.9z M46.9,32.9c-2,2-5.4,2-7.4,0
								c-2-2-2-5.4,0-7.4s5.4-2,7.4,0C49,27.5,49,30.8,46.9,32.9z"/>
							<path class="st9" d="M40.7,26.6c-1.4,1.4-1.4,3.7,0,5.1c1.4,1.4,3.7,1.4,5.1,0c1.4-1.4,1.4-3.7,0-5.1
								C44.4,25.2,42.1,25.2,40.7,26.6z"/>
						</g>
					</g>
				</g>
			</g>
		</g>
		<g>
			<g>
				<g>
					<g>
						<path class="st9" d="M126.7,9.5c-1.8-0.8-3.9,0.1-4.7,1.9c-0.8,1.8,0.1,3.9,1.9,4.7c1.8,0.8,3.9-0.1,4.7-1.9
							C129.4,12.4,128.6,10.3,126.7,9.5z"/>
						<path class="st9" d="M146.7,13.7c-1.7-0.8-3.5-0.8-5.2-0.4c-1.3,0.4-2.6,0.2-3.9-0.3l-1.5-0.6l-1.5-0.6
							c-1.2-0.5-2.3-1.4-2.9-2.5c-0.8-1.5-2.2-2.7-3.9-3.4c-3.6-1.3-7.8,0.4-9.4,3.9c-1.7,3.8,0.1,8.3,3.9,9.9
							c1.6,0.7,3.4,0.7,5,0.2c1.2-0.4,2.5-0.2,3.7,0.2l1.6,0.7l1.6,0.7c1.2,0.5,2.2,1.3,2.8,2.4c0.8,1.5,2,2.7,3.7,3.4
							c3.8,1.6,8.3-0.3,9.8-4.2C152,19.5,150.2,15.3,146.7,13.7z M123.3,17.7c-2.7-1.1-3.9-4.2-2.8-6.8c1.1-2.7,4.2-3.9,6.8-2.8
							s3.9,4.2,2.8,6.8C129.1,17.5,126,18.8,123.3,17.7z M141.7,25.3c-2.7-1.1-3.9-4.2-2.8-6.8c1.1-2.7,4.2-3.9,6.8-2.8
							c2.7,1.1,3.9,4.2,2.8,6.8C147.4,25.1,144.3,26.4,141.7,25.3z"/>
						<path class="st9" d="M145,17.1c-1.8-0.8-3.9,0.1-4.7,1.9c-0.8,1.8,0.1,3.9,1.9,4.7c1.8,0.8,3.9-0.1,4.7-1.9
							C147.8,20,146.9,17.9,145,17.1z"/>
					</g>
					<g>
						<path class="st9" d="M73.3,190.5c1.8,0.8,3.9-0.1,4.7-1.9c0.8-1.8-0.1-3.9-1.9-4.7c-1.8-0.8-3.9,0.1-4.7,1.9
							C70.6,187.6,71.4,189.7,73.3,190.5z"/>
						<path class="st9" d="M53.3,186.3c1.7,0.8,3.5,0.8,5.2,0.4c1.3-0.4,2.6-0.2,3.9,0.3l1.5,0.6l1.5,0.6c1.2,0.5,2.3,1.4,2.9,2.5
							c0.8,1.5,2.2,2.7,3.9,3.4c3.6,1.3,7.8-0.4,9.4-3.9c1.7-3.8-0.1-8.3-3.9-9.9c-1.6-0.7-3.4-0.7-5-0.2c-1.2,0.4-2.5,0.2-3.7-0.2
							l-1.6-0.7l-1.6-0.7c-1.2-0.5-2.2-1.3-2.8-2.4c-0.8-1.5-2-2.7-3.7-3.4c-3.8-1.6-8.3,0.3-9.8,4.2
							C48,180.5,49.8,184.7,53.3,186.3z M76.7,182.3c2.7,1.1,3.9,4.2,2.8,6.8c-1.1,2.7-4.2,3.9-6.8,2.8c-2.7-1.1-3.9-4.2-2.8-6.8
							C70.9,182.5,74,181.2,76.7,182.3z M58.3,174.7c2.7,1.1,3.9,4.2,2.8,6.8c-1.1,2.7-4.2,3.9-6.8,2.8c-2.7-1.1-3.9-4.2-2.8-6.8
							C52.6,174.9,55.7,173.6,58.3,174.7z"/>
						<path class="st9" d="M55,182.9c1.8,0.8,3.9-0.1,4.7-1.9c0.8-1.8-0.1-3.9-1.9-4.7c-1.8-0.8-3.9,0.1-4.7,1.9
							C52.2,180,53.1,182.1,55,182.9z"/>
					</g>
				</g>
				<g>
					<g>
						<path class="st9" d="M190.5,126.7c0.8-1.8-0.1-3.9-1.9-4.7c-1.8-0.8-3.9,0.1-4.7,1.9s0.1,3.9,1.9,4.7
							C187.6,129.4,189.7,128.6,190.5,126.7z"/>
						<path class="st9" d="M186.3,146.7c0.8-1.7,0.8-3.5,0.4-5.2c-0.4-1.3-0.2-2.6,0.3-3.9l0.6-1.5l0.6-1.5c0.5-1.2,1.4-2.3,2.5-2.9
							c1.5-0.8,2.7-2.2,3.4-3.9c1.3-3.6-0.4-7.8-3.9-9.4c-3.8-1.7-8.3,0.1-9.9,3.9c-0.7,1.6-0.7,3.4-0.2,5c0.4,1.2,0.2,2.5-0.2,3.7
							l-0.7,1.6l-0.7,1.6c-0.5,1.2-1.3,2.2-2.4,2.8c-1.5,0.8-2.7,2-3.4,3.7c-1.6,3.8,0.3,8.3,4.2,9.8
							C180.5,152,184.7,150.2,186.3,146.7z M182.3,123.3c1.1-2.7,4.2-3.9,6.8-2.8c2.7,1.1,3.9,4.2,2.8,6.8c-1.1,2.7-4.2,3.9-6.8,2.8
							C182.5,129.1,181.2,126,182.3,123.3z M174.7,141.7c1.1-2.7,4.2-3.9,6.8-2.8c2.7,1.1,3.9,4.2,2.8,6.8c-1.1,2.7-4.2,3.9-6.8,2.8
							C174.9,147.4,173.6,144.3,174.7,141.7z"/>
						<path class="st9" d="M182.9,145c0.8-1.8-0.1-3.9-1.9-4.7c-1.8-0.8-3.9,0.1-4.7,1.9c-0.8,1.8,0.1,3.9,1.9,4.7
							C180,147.8,182.1,146.9,182.9,145z"/>
					</g>
					<g>
						<path class="st9" d="M9.5,73.3c-0.8,1.8,0.1,3.9,1.9,4.7c1.8,0.8,3.9-0.1,4.7-1.9c0.8-1.8-0.1-3.9-1.9-4.7
							C12.4,70.6,10.3,71.4,9.5,73.3z"/>
						<path class="st9" d="M13.7,53.3c-0.8,1.7-0.8,3.5-0.4,5.2c0.4,1.3,0.2,2.6-0.3,3.9l-0.6,1.5l-0.6,1.5
							c-0.5,1.2-1.4,2.3-2.5,2.9c-1.5,0.8-2.7,2.2-3.4,3.9c-1.3,3.6,0.4,7.8,3.9,9.4c3.8,1.7,8.3-0.1,9.9-3.9c0.7-1.6,0.7-3.4,0.2-5
							c-0.4-1.2-0.2-2.5,0.2-3.7l0.7-1.6l0.7-1.6c0.5-1.2,1.3-2.2,2.4-2.8c1.5-0.8,2.7-2,3.4-3.7c1.6-3.8-0.3-8.3-4.2-9.8
							C19.5,48,15.3,49.8,13.7,53.3z M17.7,76.7c-1.1,2.7-4.2,3.9-6.8,2.8c-2.7-1.1-3.9-4.2-2.8-6.8c1.1-2.7,4.2-3.9,6.8-2.8
							C17.5,70.9,18.8,74,17.7,76.7z M25.3,58.3c-1.1,2.7-4.2,3.9-6.8,2.8c-2.7-1.1-3.9-4.2-2.8-6.8c1.1-2.7,4.2-3.9,6.8-2.8
							C25.1,52.6,26.4,55.7,25.3,58.3z"/>
						<path class="st9" d="M17.1,55c-0.8,1.8,0.1,3.9,1.9,4.7c1.8,0.8,3.9-0.1,4.7-1.9c0.8-1.8-0.1-3.9-1.9-4.7
							C20,52.2,17.9,53.1,17.1,55z"/>
					</g>
				</g>
			</g>
			<g>
				<g>
					<g>
						<path class="st9" d="M182.9,54.9c-0.8-1.8-2.9-2.7-4.7-1.9c-1.8,0.8-2.7,2.9-1.9,4.7c0.8,1.8,2.9,2.7,4.7,1.9
							C182.8,58.9,183.6,56.8,182.9,54.9z"/>
						<path class="st9" d="M194.1,72c-0.7-1.7-1.9-3.1-3.4-3.9c-1.2-0.6-2-1.7-2.5-2.9l-0.6-1.5l-0.6-1.5c-0.5-1.2-0.7-2.6-0.3-3.9
							c0.5-1.6,0.4-3.5-0.4-5.2c-1.6-3.5-5.8-5.2-9.4-3.8c-3.9,1.5-5.8,5.9-4.2,9.8c0.7,1.6,1.9,2.9,3.4,3.7c1.1,0.6,2,1.6,2.4,2.8
							l0.7,1.6l0.7,1.6c0.5,1.2,0.6,2.5,0.2,3.7c-0.5,1.6-0.4,3.3,0.2,5c1.6,3.8,6,5.6,9.9,3.9C193.7,79.8,195.4,75.6,194.1,72z
							 M174.7,58.3c-1.1-2.7,0.2-5.7,2.8-6.8c2.7-1.1,5.7,0.2,6.8,2.8c1.1,2.7-0.2,5.7-2.8,6.8C178.9,62.2,175.8,61,174.7,58.3z
							 M182.3,76.6c-1.1-2.7,0.2-5.7,2.8-6.8c2.7-1.1,5.7,0.2,6.8,2.8c1.1,2.7-0.2,5.7-2.8,6.8C186.5,80.6,183.4,79.3,182.3,76.6z"
							/>
						<path class="st9" d="M190.5,73.2c-0.8-1.8-2.9-2.7-4.7-1.9c-1.8,0.8-2.7,2.9-1.9,4.7c0.8,1.8,2.9,2.7,4.7,1.9
							C190.4,77.2,191.2,75.1,190.5,73.2z"/>
					</g>
					<g>
						<path class="st9" d="M17.1,145.1c0.8,1.8,2.9,2.7,4.7,1.9c1.8-0.8,2.7-2.9,1.9-4.7c-0.8-1.8-2.9-2.7-4.7-1.9
							C17.2,141.1,16.4,143.2,17.1,145.1z"/>
						<path class="st9" d="M5.9,128c0.7,1.7,1.9,3.1,3.4,3.9c1.2,0.6,2,1.7,2.5,2.9l0.6,1.5l0.6,1.5c0.5,1.2,0.7,2.6,0.3,3.9
							c-0.5,1.6-0.4,3.5,0.4,5.2c1.6,3.5,5.8,5.2,9.4,3.8c3.9-1.5,5.8-5.9,4.2-9.8c-0.7-1.6-1.9-2.9-3.4-3.7c-1.1-0.6-2-1.6-2.4-2.8
							l-0.7-1.6l-0.7-1.6c-0.5-1.2-0.6-2.5-0.2-3.7c0.5-1.6,0.4-3.3-0.2-5c-1.6-3.8-6-5.6-9.9-3.9C6.3,120.2,4.6,124.4,5.9,128z
							 M25.3,141.7c1.1,2.7-0.2,5.7-2.8,6.8c-2.7,1.1-5.7-0.2-6.8-2.8c-1.1-2.7,0.2-5.7,2.8-6.8C21.1,137.8,24.2,139,25.3,141.7z
							 M17.7,123.4c1.1,2.7-0.2,5.7-2.8,6.8c-2.7,1.1-5.7-0.2-6.8-2.8c-1.1-2.7,0.2-5.7,2.8-6.8C13.5,119.4,16.6,120.7,17.7,123.4z"
							/>
						<path class="st9" d="M9.5,126.8c0.8,1.8,2.9,2.7,4.7,1.9c1.8-0.8,2.7-2.9,1.9-4.7c-0.8-1.8-2.9-2.7-4.7-1.9
							C9.6,122.8,8.8,124.9,9.5,126.8z"/>
					</g>
				</g>
				<g>
					<g>
						<path class="st9" d="M145.1,182.9c1.8-0.8,2.7-2.9,1.9-4.7c-0.8-1.8-2.9-2.7-4.7-1.9c-1.8,0.8-2.7,2.9-1.9,4.7
							C141.1,182.8,143.2,183.6,145.1,182.9z"/>
						<path class="st9" d="M128,194.1c1.7-0.7,3.1-1.9,3.9-3.4c0.6-1.2,1.7-2,2.9-2.5l1.5-0.6l1.5-0.6c1.2-0.5,2.6-0.7,3.9-0.3
							c1.6,0.5,3.5,0.4,5.2-0.4c3.5-1.6,5.2-5.8,3.8-9.4c-1.5-3.9-5.9-5.8-9.8-4.2c-1.6,0.7-2.9,1.9-3.7,3.4c-0.6,1.1-1.6,2-2.8,2.4
							l-1.6,0.7l-1.6,0.7c-1.2,0.5-2.5,0.6-3.7,0.2c-1.6-0.5-3.3-0.4-5,0.2c-3.8,1.6-5.6,6-3.9,9.9
							C120.2,193.7,124.4,195.4,128,194.1z M141.7,174.7c2.7-1.1,5.7,0.2,6.8,2.8c1.1,2.7-0.2,5.7-2.8,6.8c-2.7,1.1-5.7-0.2-6.8-2.8
							C137.8,178.9,139,175.8,141.7,174.7z M123.4,182.3c2.7-1.1,5.7,0.2,6.8,2.8c1.1,2.7-0.2,5.7-2.8,6.8c-2.7,1.1-5.7-0.2-6.8-2.8
							C119.4,186.5,120.7,183.4,123.4,182.3z"/>
						<path class="st9" d="M126.8,190.5c1.8-0.8,2.7-2.9,1.9-4.7c-0.8-1.8-2.9-2.7-4.7-1.9c-1.8,0.8-2.7,2.9-1.9,4.7
							C122.8,190.4,124.9,191.2,126.8,190.5z"/>
					</g>
					<g>
						<path class="st9" d="M54.9,17.1c-1.8,0.8-2.7,2.9-1.9,4.7c0.8,1.8,2.9,2.7,4.7,1.9c1.8-0.8,2.7-2.9,1.9-4.7
							C58.9,17.2,56.8,16.4,54.9,17.1z"/>
						<path class="st9" d="M72,5.9c-1.7,0.7-3.1,1.9-3.9,3.4c-0.6,1.2-1.7,2-2.9,2.5l-1.5,0.6l-1.5,0.6c-1.2,0.5-2.6,0.7-3.9,0.3
							c-1.6-0.5-3.5-0.4-5.2,0.4c-3.5,1.6-5.2,5.8-3.8,9.4c1.5,3.9,5.9,5.8,9.8,4.2c1.6-0.7,2.9-1.9,3.7-3.4c0.6-1.1,1.6-2,2.8-2.4
							l1.6-0.7l1.6-0.7c1.2-0.5,2.5-0.6,3.7-0.2c1.6,0.5,3.3,0.4,5-0.2c3.8-1.6,5.6-6,3.9-9.9C79.8,6.3,75.6,4.6,72,5.9z M58.3,25.3
							c-2.7,1.1-5.7-0.2-6.8-2.8c-1.1-2.7,0.2-5.7,2.8-6.8c2.7-1.1,5.7,0.2,6.8,2.8C62.2,21.1,61,24.2,58.3,25.3z M76.6,17.7
							c-2.7,1.1-5.7-0.2-6.8-2.8c-1.1-2.7,0.2-5.7,2.8-6.8c2.7-1.1,5.7,0.2,6.8,2.8C80.6,13.5,79.3,16.6,76.6,17.7z"/>
						<path class="st9" d="M73.2,9.5c-1.8,0.8-2.7,2.9-1.9,4.7c0.8,1.8,2.9,2.7,4.7,1.9c1.8-0.8,2.7-2.9,1.9-4.7
							C77.2,9.6,75.1,8.8,73.2,9.5z"/>
					</g>
				</g>
			</g>
		</g>
	</g>
</g>
<g>
	<line class="st10" x1="100" y1="43" x2="100" y2="47"/>
	<line class="st10" x1="100" y1="63" x2="100" y2="67"/>
	<line class="st10" x1="88" y1="55" x2="92" y2="55"/>
	<line class="st10" x1="108" y1="55" x2="112" y2="55"/>
	<circle class="st11" cx="100" cy="55" r="3"/>
	<circle class="st12" cx="100" cy="55" r="12"/>
</g>
<g>
	<path class="st13" d="M98,78h4c0.6,0,1,0.4,1,1v2c0,0.6-0.4,1-1,1h-4c-0.6,0-1-0.4-1-1v-2C97,78.4,97.4,78,98,78z"/>
	<path class="st14" d="M98,85h4c0.6,0,1,0.4,1,1v2c0,0.6-0.4,1-1,1h-4c-0.6,0-1-0.4-1-1v-2C97,85.4,97.4,85,98,85z"/>
	<path class="st15" d="M98,92h4c0.6,0,1,0.4,1,1v2c0,0.6-0.4,1-1,1h-4c-0.6,0-1-0.4-1-1v-2C97,92.4,97.4,92,98,92z"/>
	<path class="st15" d="M98,105h4c0.6,0,1,0.4,1,1v2c0,0.6-0.4,1-1,1h-4c-0.6,0-1-0.4-1-1v-2C97,105.4,97.4,105,98,105z"/>
	<path class="st14" d="M98,112h4c0.6,0,1,0.4,1,1v2c0,0.6-0.4,1-1,1h-4c-0.6,0-1-0.4-1-1v-2C97,112.4,97.4,112,98,112z"/>
	<path class="st13" d="M98,119h4c0.6,0,1,0.4,1,1v2c0,0.6-0.4,1-1,1h-4c-0.6,0-1-0.4-1-1v-2C97,119.4,97.4,119,98,119z"/>
</g>
<g>
	<line class="st16" x1="100" y1="133" x2="100" y2="137"/>
	<line class="st16" x1="100" y1="153" x2="100" y2="157"/>
	<line class="st16" x1="88" y1="145" x2="92" y2="145"/>
	<line class="st16" x1="108" y1="145" x2="112" y2="145"/>
	<line class="st16" x1="91.5" y1="136.5" x2="94.3" y2="139.3"/>
	<line class="st16" x1="105.7" y1="150.7" x2="108.5" y2="153.5"/>
	<line class="st16" x1="108.5" y1="136.5" x2="105.7" y2="139.3"/>
	<line class="st16" x1="94.3" y1="150.7" x2="91.5" y2="153.5"/>
	<circle class="st17" cx="100" cy="145" r="12"/>
	<circle class="st18" cx="100" cy="145" r="3"/>
</g>
</svg>
